<svg width="54" height="54" viewBox="0 0 54 54" fill="none" xmlns="http://www.w3.org/2000/svg">
<g filter="url(#filter0_ddiii_1321_6069)">
<g clip-path="url(#clip0_1321_6069)">
<rect x="3" width="48" height="48" rx="12" fill="#262626"/>
<rect width="48" height="48" transform="translate(3)" fill="url(#paint0_linear_1321_6069)"/>
<g filter="url(#filter1_d_1321_6069)">
<path fill-rule="evenodd" clip-rule="evenodd" d="M22.6719 9.74951C20.2604 9.74951 18.032 11.0361 16.8263 13.1245L12.4961 20.6245C11.2904 22.713 11.2904 25.2861 12.4961 27.3745L16.8263 34.8745C18.032 36.963 20.2604 38.2495 22.6719 38.2495H31.3322C33.7437 38.2495 35.9721 36.963 37.1778 34.8745L41.508 27.3745C42.7137 25.2861 42.7137 22.713 41.508 20.6245L37.1778 13.1245C35.9721 11.0361 33.7437 9.74951 31.3322 9.74951H22.6719ZM31.3322 14.2495L25.9195 14.2495C25.0535 14.2495 24.5124 15.1869 24.946 15.9366C26.284 18.2494 27.6252 20.5605 28.9612 22.8745C29.3631 23.5707 29.3631 24.4284 28.9612 25.1245C27.6252 27.4385 26.284 29.7496 24.946 32.0625C24.5124 32.8121 25.0535 33.7495 25.9195 33.7495H31.3322C32.136 33.7495 32.8788 33.3207 33.2807 32.6245L37.6109 25.1245C38.0128 24.4284 38.0128 23.5707 37.6109 22.8745L33.2807 15.3745C32.8788 14.6784 32.136 14.2495 31.3322 14.2495Z" fill="url(#paint1_linear_1321_6069)"/>
</g>
</g>
<rect x="4" y="1" width="46" height="46" rx="11" stroke="url(#paint2_linear_1321_6069)" stroke-width="2"/>
</g>
<defs>
<filter id="filter0_ddiii_1321_6069" x="0" y="-3" width="54" height="57" filterUnits="userSpaceOnUse" color-interpolation-filters="sRGB">
<feFlood flood-opacity="0" result="BackgroundImageFix"/>
<feColorMatrix in="SourceAlpha" type="matrix" values="0 0 0 0 0 0 0 0 0 0 0 0 0 0 0 0 0 0 127 0" result="hardAlpha"/>
<feOffset dy="1"/>
<feGaussianBlur stdDeviation="0.5"/>
<feComposite in2="hardAlpha" operator="out"/>
<feColorMatrix type="matrix" values="0 0 0 0 0.162923 0 0 0 0 0.162923 0 0 0 0 0.162923 0 0 0 0.08 0"/>
<feBlend mode="normal" in2="BackgroundImageFix" result="effect1_dropShadow_1321_6069"/>
<feColorMatrix in="SourceAlpha" type="matrix" values="0 0 0 0 0 0 0 0 0 0 0 0 0 0 0 0 0 0 127 0" result="hardAlpha"/>
<feMorphology radius="1" operator="erode" in="SourceAlpha" result="effect2_dropShadow_1321_6069"/>
<feOffset dy="3"/>
<feGaussianBlur stdDeviation="2"/>
<feComposite in2="hardAlpha" operator="out"/>
<feColorMatrix type="matrix" values="0 0 0 0 0.164706 0 0 0 0 0.164706 0 0 0 0 0.164706 0 0 0 0.14 0"/>
<feBlend mode="normal" in2="effect1_dropShadow_1321_6069" result="effect2_dropShadow_1321_6069"/>
<feBlend mode="normal" in="SourceGraphic" in2="effect2_dropShadow_1321_6069" result="shape"/>
<feColorMatrix in="SourceAlpha" type="matrix" values="0 0 0 0 0 0 0 0 0 0 0 0 0 0 0 0 0 0 127 0" result="hardAlpha"/>
<feOffset dy="-3"/>
<feGaussianBlur stdDeviation="1.5"/>
<feComposite in2="hardAlpha" operator="arithmetic" k2="-1" k3="1"/>
<feColorMatrix type="matrix" values="0 0 0 0 0 0 0 0 0 0 0 0 0 0 0 0 0 0 0.1 0"/>
<feBlend mode="normal" in2="shape" result="effect3_innerShadow_1321_6069"/>
<feColorMatrix in="SourceAlpha" type="matrix" values="0 0 0 0 0 0 0 0 0 0 0 0 0 0 0 0 0 0 127 0" result="hardAlpha"/>
<feOffset dy="3"/>
<feGaussianBlur stdDeviation="1.5"/>
<feComposite in2="hardAlpha" operator="arithmetic" k2="-1" k3="1"/>
<feColorMatrix type="matrix" values="0 0 0 0 1 0 0 0 0 1 0 0 0 0 1 0 0 0 0.1 0"/>
<feBlend mode="normal" in2="effect3_innerShadow_1321_6069" result="effect4_innerShadow_1321_6069"/>
<feColorMatrix in="SourceAlpha" type="matrix" values="0 0 0 0 0 0 0 0 0 0 0 0 0 0 0 0 0 0 127 0" result="hardAlpha"/>
<feMorphology radius="1" operator="erode" in="SourceAlpha" result="effect5_innerShadow_1321_6069"/>
<feOffset/>
<feComposite in2="hardAlpha" operator="arithmetic" k2="-1" k3="1"/>
<feColorMatrix type="matrix" values="0 0 0 0 0 0 0 0 0 0 0 0 0 0 0 0 0 0 0.2 0"/>
<feBlend mode="normal" in2="effect4_innerShadow_1321_6069" result="effect5_innerShadow_1321_6069"/>
</filter>
<filter id="filter1_d_1321_6069" x="8.25" y="5.25" width="37.5" height="42" filterUnits="userSpaceOnUse" color-interpolation-filters="sRGB">
<feFlood flood-opacity="0" result="BackgroundImageFix"/>
<feColorMatrix in="SourceAlpha" type="matrix" values="0 0 0 0 0 0 0 0 0 0 0 0 0 0 0 0 0 0 127 0" result="hardAlpha"/>
<feMorphology radius="1.5" operator="erode" in="SourceAlpha" result="effect1_dropShadow_1321_6069"/>
<feOffset dy="2.25"/>
<feGaussianBlur stdDeviation="2.25"/>
<feComposite in2="hardAlpha" operator="out"/>
<feColorMatrix type="matrix" values="0 0 0 0 0.141176 0 0 0 0 0.141176 0 0 0 0 0.141176 0 0 0 0.1 0"/>
<feBlend mode="normal" in2="BackgroundImageFix" result="effect1_dropShadow_1321_6069"/>
<feBlend mode="normal" in="SourceGraphic" in2="effect1_dropShadow_1321_6069" result="shape"/>
</filter>
<linearGradient id="paint0_linear_1321_6069" x1="24" y1="5.96047e-07" x2="26" y2="48" gradientUnits="userSpaceOnUse">
<stop stop-color="white" stop-opacity="0"/>
<stop offset="1" stop-color="white" stop-opacity="0.12"/>
</linearGradient>
<linearGradient id="paint1_linear_1321_6069" x1="27.002" y1="9.74951" x2="27.002" y2="38.2495" gradientUnits="userSpaceOnUse">
<stop stop-color="white" stop-opacity="0.8"/>
<stop offset="1" stop-color="white" stop-opacity="0.5"/>
</linearGradient>
<linearGradient id="paint2_linear_1321_6069" x1="27" y1="0" x2="27" y2="48" gradientUnits="userSpaceOnUse">
<stop stop-color="white" stop-opacity="0.12"/>
<stop offset="1" stop-color="white" stop-opacity="0"/>
</linearGradient>
<clipPath id="clip0_1321_6069">
<rect x="3" width="48" height="48" rx="12" fill="white"/>
</clipPath>
</defs>
</svg>
